
<svg width="600" height="400" viewBox="0 0 600 400" xmlns="http://www.w3.org/2000/svg">
  <rect width="600" height="400" fill="#f0f4f8"/>
  <rect x="50" y="50" width="500" height="60" rx="4" fill="#ffffff" stroke="#e0e0e0"/>
  <rect x="70" y="70" width="200" height="20" rx="4" fill="#0077b5" opacity="0.7"/>
  <rect x="50" y="130" width="500" height="120" rx="4" fill="#ffffff" stroke="#e0e0e0"/>
  <rect x="70" y="150" width="460" height="10" rx="2" fill="#e0e0e0"/>
  <rect x="70" y="170" width="420" height="10" rx="2" fill="#e0e0e0"/>
  <rect x="70" y="190" width="440" height="10" rx="2" fill="#e0e0e0"/>
  <rect x="70" y="210" width="380" height="10" rx="2" fill="#e0e0e0"/>
  <rect x="70" y="230" width="200" height="10" rx="2" fill="#e0e0e0"/>
  <rect x="50" y="270" width="500" height="80" rx="4" fill="#ffffff" stroke="#e0e0e0"/>
  <rect x="480" y="290" width="50" height="40" rx="4" fill="#ff69b4" opacity="0.8"/>
  <text x="490" y="315" font-family="Arial" font-size="12" fill="#ffffff">Post</text>
  <circle cx="80" cy="310" r="20" fill="#f0f0f0" stroke="#e0e0e0"/>
  <rect x="110" y="300" width="120" height="10" rx="2" fill="#0077b5" opacity="0.7"/>
  <rect x="110" y="320" width="80" height="10" rx="2" fill="#e0e0e0"/>
</svg>
